<svg width="32" height="32" viewBox="0 0 32 32" xmlns="http://www.w3.org/2000/svg">
  <!-- Background circle -->
  <circle cx="16" cy="16" r="16" fill="url(#bgGradient)" />
  
  <!-- Main geometric shape -->
  <polygon points="16,4 28,16 16,28 4,16" fill="rgba(255,255,255,0.95)" stroke="rgba(255,255,255,0.3)" stroke-width="0.5"/>
  
  <!-- Inner pattern -->
  <polygon points="16,8 24,16 16,24 8,16" fill="none" stroke="rgba(255,255,255,0.7)" stroke-width="1.5"/>
  
  <!-- Center dot -->
  <circle cx="16" cy="16" r="2" fill="rgba(255,255,255,0.9)"/>
  
  <!-- Algorithm connection points -->
  <circle cx="16" cy="10" r="1.5" fill="rgba(255,255,255,0.8)"/>
  <circle cx="22" cy="16" r="1.5" fill="rgba(255,255,255,0.8)"/>
  <circle cx="16" cy="22" r="1.5" fill="rgba(255,255,255,0.8)"/>
  <circle cx="10" cy="16" r="1.5" fill="rgba(255,255,255,0.8)"/>
  
  <!-- Connecting lines -->
  <line x1="16" y1="12" x2="16" y2="20" stroke="rgba(255,255,255,0.6)" stroke-width="1" stroke-linecap="round"/>
  <line x1="12" y1="16" x2="20" y2="16" stroke="rgba(255,255,255,0.6)" stroke-width="1" stroke-linecap="round"/>
  
  <!-- Corner sparkles -->
  <circle cx="6" cy="6" r="1" fill="rgba(255,255,255,0.7)"/>
  <circle cx="26" cy="6" r="1" fill="rgba(255,255,255,0.7)"/>
  <circle cx="6" cy="26" r="1" fill="rgba(255,255,255,0.7)"/>
  <circle cx="26" cy="26" r="1" fill="rgba(255,255,255,0.7)"/>
  
  <defs>
    <linearGradient id="bgGradient" x1="0%" y1="0%" x2="100%" y2="100%">
      <stop offset="0%" stop-color="#3B82F6"/>
      <stop offset="50%" stop-color="#8B5CF6"/>
      <stop offset="100%" stop-color="#EC4899"/>
    </linearGradient>
  </defs>
</svg>
